# Blender v2.93.6 OBJ File: ''
# www.blender.org
mtllib La FenceOBJ.mtl
o polySurface3.001_Mesh
v 0.030000 -0.000000 0.002014
v 0.040000 -0.000000 0.002014
v 0.030000 0.065000 0.002014
v 0.040000 0.065000 0.002014
v 0.030000 0.065000 -0.002014
v 0.040000 0.065000 -0.002014
v 0.030000 0.000000 -0.002014
v 0.040000 0.000000 -0.002014
v 0.035000 0.070000 0.002014
v 0.035000 0.070000 0.002014
v 0.035000 0.070000 -0.002014
v 0.035000 0.070000 -0.002014
v -0.040000 0.044569 0.000579
v 0.051136 0.044569 0.000579
v -0.040000 0.050431 0.000579
v 0.051136 0.050431 0.000579
v -0.040000 0.050431 -0.000579
v 0.051136 0.050431 -0.000579
v -0.040000 0.044569 -0.000579
v 0.051136 0.044569 -0.000579
v -0.040000 0.019569 0.000579
v 0.051136 0.019569 0.000579
v -0.040000 0.025431 0.000579
v 0.051136 0.025431 0.000579
v -0.040000 0.025431 -0.000579
v 0.051136 0.025431 -0.000579
v -0.040000 0.019569 -0.000579
v 0.051136 0.019569 -0.000579
v -0.030000 -0.000000 0.002014
v -0.020000 -0.000000 0.002014
v -0.030000 0.065000 0.002014
v -0.020000 0.065000 0.002014
v -0.030000 0.065000 -0.002014
v -0.020000 0.065000 -0.002014
v -0.030000 0.000000 -0.002014
v -0.020000 0.000000 -0.002014
v -0.025000 0.070000 0.002014
v -0.025000 0.070000 0.002014
v -0.025000 0.070000 -0.002014
v -0.025000 0.070000 -0.002014
v -0.010000 -0.000000 0.002014
v 0.000000 -0.000000 0.002014
v -0.010000 0.065000 0.002014
v 0.000000 0.065000 0.002014
v -0.010000 0.065000 -0.002014
v 0.000000 0.065000 -0.002014
v -0.010000 0.000000 -0.002014
v 0.000000 0.000000 -0.002014
v -0.005000 0.070000 0.002014
v -0.005000 0.070000 0.002014
v -0.005000 0.070000 -0.002014
v -0.005000 0.070000 -0.002014
v 0.010000 -0.000000 0.002014
v 0.020000 -0.000000 0.002014
v 0.010000 0.065000 0.002014
v 0.020000 0.065000 0.002014
v 0.010000 0.065000 -0.002014
v 0.020000 0.065000 -0.002014
v 0.010000 0.000000 -0.002014
v 0.020000 0.000000 -0.002014
v 0.015000 0.070000 0.002014
v 0.015000 0.070000 0.002014
v 0.015000 0.070000 -0.002014
v 0.015000 0.070000 -0.002014
vt 0.375000 0.000000
vt 0.625000 0.000000
vt 0.625000 0.250000
vt 0.375000 0.250000
vt 0.375000 0.250000
vt 0.625000 0.250000
vt 0.625000 0.500000
vt 0.375000 0.500000
vt 0.375000 0.500000
vt 0.625000 0.500000
vt 0.625000 0.750000
vt 0.375000 0.750000
vt 0.625000 1.000000
vt 0.375000 1.000000
vt 0.875000 0.000000
vt 0.875000 0.250000
vt 0.125000 0.000000
vt 0.125000 0.250000
vt 0.375000 0.000000
vt 0.625000 0.000000
vt 0.625000 0.250000
vt 0.375000 0.250000
vt 0.625000 0.500000
vt 0.375000 0.500000
vt 0.625000 0.750000
vt 0.375000 0.750000
vt 0.625000 1.000000
vt 0.375000 1.000000
vt 0.875000 0.000000
vt 0.875000 0.250000
vt 0.125000 0.000000
vt 0.125000 0.250000
vt 0.375000 0.000000
vt 0.625000 0.000000
vt 0.625000 0.250000
vt 0.375000 0.250000
vt 0.625000 0.500000
vt 0.375000 0.500000
vt 0.625000 0.750000
vt 0.375000 0.750000
vt 0.625000 1.000000
vt 0.375000 1.000000
vt 0.875000 0.000000
vt 0.875000 0.250000
vt 0.125000 0.000000
vt 0.125000 0.250000
vt 0.375000 0.000000
vt 0.625000 0.000000
vt 0.625000 0.250000
vt 0.375000 0.250000
vt 0.375000 0.250000
vt 0.625000 0.250000
vt 0.625000 0.500000
vt 0.375000 0.500000
vt 0.375000 0.500000
vt 0.625000 0.500000
vt 0.625000 0.750000
vt 0.375000 0.750000
vt 0.625000 1.000000
vt 0.375000 1.000000
vt 0.875000 0.000000
vt 0.875000 0.250000
vt 0.125000 0.000000
vt 0.125000 0.250000
vt 0.375000 0.000000
vt 0.625000 0.000000
vt 0.625000 0.250000
vt 0.375000 0.250000
vt 0.375000 0.250000
vt 0.625000 0.250000
vt 0.625000 0.500000
vt 0.375000 0.500000
vt 0.375000 0.500000
vt 0.625000 0.500000
vt 0.625000 0.750000
vt 0.375000 0.750000
vt 0.625000 1.000000
vt 0.375000 1.000000
vt 0.875000 0.000000
vt 0.875000 0.250000
vt 0.125000 0.000000
vt 0.125000 0.250000
vt 0.375000 0.000000
vt 0.625000 0.000000
vt 0.625000 0.250000
vt 0.375000 0.250000
vt 0.375000 0.250000
vt 0.625000 0.250000
vt 0.625000 0.500000
vt 0.375000 0.500000
vt 0.375000 0.500000
vt 0.625000 0.500000
vt 0.625000 0.750000
vt 0.375000 0.750000
vt 0.625000 1.000000
vt 0.375000 1.000000
vt 0.875000 0.000000
vt 0.875000 0.250000
vt 0.125000 0.000000
vt 0.125000 0.250000
vn 0.0000 -0.0000 1.0000
vn 0.0000 0.0000 0.0000
vn 0.0000 0.9261 0.3773
vn 0.0000 0.0000 -1.0000
vn 0.0000 -1.0000 -0.0000
vn 1.0000 0.0000 0.0000
vn -1.0000 0.0000 0.0000
vn 0.7071 0.7071 0.0000
vn -0.7071 0.7071 0.0000
vn 0.0000 1.0000 0.0000
usemtl lambert2
s 1
f 1/1/1 2/2/1 4/3/1 3/4/1
f 9/5/2 10/6/2 11/7/3 12/8/3
f 5/9/4 6/10/4 8/11/4 7/12/4
f 7/12/5 8/11/5 2/13/5 1/14/5
f 2/2/6 8/15/6 6/16/6 4/3/6
f 7/17/7 1/1/7 3/4/7 5/18/7
f 3/4/1 4/3/1 10/6/2 9/5/2
f 4/3/8 6/10/8 11/7/8 10/6/8
f 6/10/4 5/9/4 12/8/3 11/7/3
f 5/9/9 3/4/9 9/5/9 12/8/9
f 13/19/1 14/20/1 16/21/1 15/22/1
f 15/22/10 16/21/10 18/23/10 17/24/10
f 17/24/4 18/23/4 20/25/4 19/26/4
f 19/26/5 20/25/5 14/27/5 13/28/5
f 14/20/6 20/29/6 18/30/6 16/21/6
f 19/31/7 13/19/7 15/22/7 17/32/7
f 21/33/1 22/34/1 24/35/1 23/36/1
f 23/36/10 24/35/10 26/37/10 25/38/10
f 25/38/4 26/37/4 28/39/4 27/40/4
f 27/40/5 28/39/5 22/41/5 21/42/5
f 22/34/6 28/43/6 26/44/6 24/35/6
f 27/45/7 21/33/7 23/36/7 25/46/7
f 29/47/1 30/48/1 32/49/1 31/50/1
f 37/51/2 38/52/2 39/53/3 40/54/3
f 33/55/4 34/56/4 36/57/4 35/58/4
f 35/58/5 36/57/5 30/59/5 29/60/5
f 30/48/6 36/61/6 34/62/6 32/49/6
f 35/63/7 29/47/7 31/50/7 33/64/7
f 31/50/1 32/49/1 38/52/2 37/51/2
f 32/49/8 34/56/8 39/53/8 38/52/8
f 34/56/4 33/55/4 40/54/3 39/53/3
f 33/55/9 31/50/9 37/51/9 40/54/9
f 41/65/1 42/66/1 44/67/1 43/68/1
f 49/69/2 50/70/2 51/71/10 52/72/10
f 45/73/4 46/74/4 48/75/4 47/76/4
f 47/76/5 48/75/5 42/77/5 41/78/5
f 42/66/6 48/79/6 46/80/6 44/67/6
f 47/81/7 41/65/7 43/68/7 45/82/7
f 43/68/1 44/67/1 50/70/2 49/69/2
f 44/67/8 46/74/8 51/71/8 50/70/8
f 46/74/4 45/73/4 52/72/10 51/71/10
f 45/73/9 43/68/9 49/69/9 52/72/9
f 53/83/1 54/84/1 56/85/1 55/86/1
f 61/87/2 62/88/2 63/89/10 64/90/10
f 57/91/4 58/92/4 60/93/4 59/94/4
f 59/94/5 60/93/5 54/95/5 53/96/5
f 54/84/6 60/97/6 58/98/6 56/85/6
f 59/99/7 53/83/7 55/86/7 57/100/7
f 55/86/1 56/85/1 62/88/2 61/87/2
f 56/85/8 58/92/8 63/89/8 62/88/8
f 58/92/4 57/91/4 64/90/10 63/89/10
f 57/91/9 55/86/9 61/87/9 64/90/9
