# Blender v2.93.6 OBJ File: ''
# www.blender.org
mtllib Cotton BallOBJ.mtl
o Plane.001_tallBush_0
v 0.484214 1.018726 0.318015
v 0.484214 -0.139889 0.318015
v -0.484214 -0.139889 -0.318015
v -0.484215 1.018726 -0.318015
v -0.318015 1.018726 0.484215
v -0.318015 -0.139889 0.484215
v 0.318015 -0.139889 -0.484215
v 0.318015 1.018726 -0.484215
v 0.089456 1.018726 0.572359
v 0.089456 -0.139889 0.572359
v -0.089456 -0.139889 -0.572359
v -0.089456 1.018726 -0.572359
v -0.572359 1.018726 0.089456
v -0.572359 -0.139889 0.089456
v 0.572359 -0.139889 -0.089456
v 0.572359 1.018726 -0.089456
v 0.562639 1.018726 0.137964
v 0.562639 -0.139889 0.137964
v -0.562639 -0.139889 -0.137964
v -0.562639 1.018726 -0.137964
v -0.137964 1.018726 0.562639
v -0.137964 -0.139889 0.562639
v 0.137964 -0.139889 -0.562639
v 0.137964 1.018726 -0.562639
v 0.275541 1.018726 0.509582
v 0.275541 -0.139889 0.509582
v -0.275541 -0.139889 -0.509582
v -0.275541 1.018726 -0.509582
v -0.509582 1.018726 0.275541
v -0.509582 -0.139889 0.275541
v 0.509582 -0.139889 -0.275541
v 0.509582 1.018726 -0.275541
v 0.546019 1.018726 0.193547
v 0.546019 -0.139889 0.193547
v -0.546019 -0.139889 -0.193547
v -0.546019 1.018726 -0.193547
v -0.193547 1.018726 0.546019
v -0.193547 -0.139889 0.546019
v 0.193547 -0.139889 -0.546019
v 0.193547 1.018726 -0.546019
v 0.223192 1.018726 0.534586
v 0.223192 -0.139889 0.534586
v -0.223192 -0.139889 -0.534586
v -0.223192 1.018726 -0.534586
v -0.534586 1.018726 0.223192
v -0.534586 -0.139889 0.223192
v 0.534586 -0.139889 -0.223192
v 0.534586 1.018726 -0.223192
v 0.579307 1.018726 0.000000
v 0.579307 -0.139889 0.000000
v -0.579307 -0.139889 -0.000000
v -0.579307 1.018726 0.000000
v -0.000000 1.018726 0.579307
v 0.000000 -0.139889 0.579307
v 0.000000 -0.139889 -0.579307
v 0.000000 1.018726 -0.579307
v 0.388972 1.018726 0.429299
v 0.388972 -0.139889 0.429299
v -0.388972 -0.139889 -0.429299
v -0.388972 1.018726 -0.429299
v -0.429299 1.018726 0.388972
v -0.429299 -0.139889 0.388972
v 0.429299 -0.139889 -0.388972
v 0.429299 1.018726 -0.388972
vt 0.000000 1.000000
vt 1.000000 0.000000
vt 0.000000 0.000000
vt 0.000000 1.000000
vt 1.000000 1.000000
vt 1.000000 0.000000
vt 0.000000 0.000000
vt 0.000000 1.000000
vt 1.000000 1.000000
vt 1.000000 0.000000
vt 0.000000 0.000000
vt 0.000000 1.000000
vt 1.000000 1.000000
vt 1.000000 0.000000
vt 0.000000 0.000000
vt 0.000000 1.000000
vt 1.000000 1.000000
vt 1.000000 0.000000
vt 0.000000 0.000000
vt 0.000000 1.000000
vt 1.000000 1.000000
vt 1.000000 0.000000
vt 0.000000 0.000000
vt 0.000000 1.000000
vt 1.000000 1.000000
vt 1.000000 0.000000
vt 0.000000 0.000000
vt 0.000000 1.000000
vt 1.000000 1.000000
vt 1.000000 0.000000
vt 0.000000 0.000000
vt 0.000000 1.000000
vt 1.000000 1.000000
vt 1.000000 0.000000
vt 0.000000 0.000000
vt 0.000000 1.000000
vt 1.000000 1.000000
vt 1.000000 0.000000
vt 0.000000 0.000000
vt 0.000000 1.000000
vt 1.000000 1.000000
vt 1.000000 0.000000
vt 0.000000 0.000000
vt 0.000000 1.000000
vt 1.000000 1.000000
vt 1.000000 0.000000
vt 0.000000 0.000000
vt 0.000000 1.000000
vt 1.000000 1.000000
vt 1.000000 0.000000
vt 0.000000 0.000000
vt 0.000000 1.000000
vt 1.000000 1.000000
vt 1.000000 0.000000
vt 0.000000 0.000000
vt 0.000000 1.000000
vt 1.000000 1.000000
vt 1.000000 0.000000
vt 0.000000 0.000000
vt 0.000000 1.000000
vt 1.000000 1.000000
vt 1.000000 0.000000
vt 0.000000 0.000000
vt 1.000000 1.000000
vn 0.5490 0.0000 -0.8359
vn 0.8359 0.0000 0.5490
vn 0.9880 -0.0000 -0.1544
vn 0.1544 0.0000 0.9880
vn 0.2382 -0.0000 -0.9712
vn 0.9712 0.0000 0.2382
vn 0.8796 0.0000 -0.4756
vn 0.4756 0.0000 0.8796
vn 0.3341 0.0000 -0.9425
vn 0.9425 0.0000 0.3341
vn 0.9228 0.0000 -0.3853
vn 0.3853 0.0000 0.9228
vn 0.0000 -0.0000 -1.0000
vn 1.0000 0.0000 0.0000
vn 0.7411 0.0000 -0.6714
vn 0.6714 0.0000 0.7411
usemtl tallBush
s off
f 1/1/1 3/2/1 4/3/1
f 5/4/2 6/5/2 7/6/2
f 5/4/2 7/6/2 8/7/2
f 9/8/3 10/9/3 11/10/3
f 9/8/3 11/10/3 12/11/3
f 13/12/4 14/13/4 15/14/4
f 13/12/4 15/14/4 16/15/4
f 17/16/5 18/17/5 19/18/5
f 17/16/5 19/18/5 20/19/5
f 21/20/6 22/21/6 23/22/6
f 21/20/6 23/22/6 24/23/6
f 25/24/7 26/25/7 27/26/7
f 25/24/7 27/26/7 28/27/7
f 29/28/8 30/29/8 31/30/8
f 29/28/8 31/30/8 32/31/8
f 33/32/9 34/33/9 35/34/9
f 33/32/9 35/34/9 36/35/9
f 37/36/10 38/37/10 39/38/10
f 37/36/10 39/38/10 40/39/10
f 41/40/11 42/41/11 43/42/11
f 41/40/11 43/42/11 44/43/11
f 45/44/12 46/45/12 47/46/12
f 45/44/12 47/46/12 48/47/12
f 49/48/13 50/49/13 51/50/13
f 49/48/13 51/50/13 52/51/13
f 53/52/14 54/53/14 55/54/14
f 53/52/14 55/54/14 56/55/14
f 57/56/15 58/57/15 59/58/15
f 57/56/15 59/58/15 60/59/15
f 61/60/16 62/61/16 63/62/16
f 61/60/16 63/62/16 64/63/16
s 1
f 1/1/1 2/64/1 3/2/1
