# Blender v2.93.6 OBJ File: ''
# www.blender.org
mtllib LADderOBJ.mtl
o pCube2_Mesh
v -0.015468 -0.004171 0.002968
v -0.009532 -0.004171 0.002968
v -0.015468 0.134171 0.002968
v -0.009532 0.134171 0.002968
v -0.015468 0.134171 -0.002968
v -0.009532 0.134171 -0.002968
v -0.015468 -0.004171 -0.002968
v -0.009532 -0.004171 -0.002968
v -0.009532 0.125936 0.002968
v -0.015468 0.127583 0.002968
v -0.015468 0.127583 -0.002968
v -0.009532 0.125936 -0.002968
v -0.009532 0.122642 0.002968
v -0.015468 0.120995 0.002968
v -0.015468 0.120995 -0.002968
v -0.009532 0.122642 -0.002968
v -0.009532 0.112761 0.002968
v -0.015468 0.114408 0.002968
v -0.015468 0.114408 -0.002968
v -0.009532 0.112761 -0.002968
v -0.009532 0.109467 0.002968
v -0.015468 0.107820 0.002968
v -0.015468 0.107820 -0.002968
v -0.009532 0.109467 -0.002968
v -0.009532 0.099585 0.002968
v -0.015468 0.101232 0.002968
v -0.015468 0.101232 -0.002968
v -0.009532 0.099585 -0.002968
v -0.009532 0.096292 0.002968
v -0.015468 0.094645 0.002968
v -0.015468 0.094645 -0.002968
v -0.009532 0.096292 -0.002968
v -0.009532 0.086410 0.002968
v -0.015468 0.088057 0.002968
v -0.015468 0.088057 -0.002968
v -0.009532 0.086410 -0.002968
v -0.009532 0.083116 0.002968
v -0.015468 0.081469 0.002968
v -0.015468 0.081469 -0.002968
v -0.009532 0.083116 -0.002968
v -0.009532 0.073235 0.002968
v -0.015468 0.074882 0.002968
v -0.015468 0.074882 -0.002968
v -0.009532 0.073235 -0.002968
v -0.009532 0.069941 0.002968
v -0.015468 0.068294 0.002968
v -0.015468 0.068294 -0.002968
v -0.009532 0.069941 -0.002968
v -0.009532 0.060059 0.002968
v -0.015468 0.061706 0.002968
v -0.015468 0.061706 -0.002968
v -0.009532 0.060059 -0.002968
v -0.009532 0.056765 0.002968
v -0.015468 0.055118 0.002968
v -0.015468 0.055118 -0.002968
v -0.009532 0.056765 -0.002968
v -0.009532 0.046884 0.002968
v -0.015468 0.048531 0.002968
v -0.015468 0.048531 -0.002968
v -0.009532 0.046884 -0.002968
v -0.009532 0.043590 0.002968
v -0.015468 0.041943 0.002968
v -0.015468 0.041943 -0.002968
v -0.009532 0.043590 -0.002968
v -0.009532 0.033709 0.002968
v -0.015468 0.035355 0.002968
v -0.015468 0.035355 -0.002968
v -0.009532 0.033709 -0.002968
v -0.009532 0.030415 0.002968
v -0.015468 0.028768 0.002968
v -0.015468 0.028768 -0.002968
v -0.009532 0.030415 -0.002968
v -0.009532 0.020533 0.002968
v -0.015468 0.022180 0.002968
v -0.015468 0.022180 -0.002968
v -0.009532 0.020533 -0.002968
v -0.009532 0.017239 0.002968
v -0.015468 0.015592 0.002968
v -0.015468 0.015592 -0.002968
v -0.009532 0.017239 -0.002968
v -0.009532 0.007358 0.002968
v -0.015468 0.009005 0.002968
v -0.015468 0.009005 -0.002968
v -0.009532 0.007358 -0.002968
v -0.009532 0.004064 0.002968
v -0.015468 0.002417 0.002968
v -0.015468 0.002417 -0.002968
v -0.009532 0.004064 -0.002968
v 0.009532 -0.004171 0.002968
v 0.015468 -0.004171 0.002968
v 0.009532 0.134171 0.002968
v 0.015468 0.134171 0.002968
v 0.009532 0.134171 -0.002968
v 0.015468 0.134171 -0.002968
v 0.009532 -0.004171 -0.002968
v 0.015468 -0.004171 -0.002968
v 0.015468 0.127583 0.002968
v 0.009532 0.125936 0.002968
v 0.009532 0.125936 -0.002968
v 0.015468 0.127583 -0.002968
v 0.015468 0.120995 0.002968
v 0.009532 0.122642 0.002968
v 0.009532 0.122642 -0.002968
v 0.015468 0.120995 -0.002968
v 0.015468 0.114408 0.002968
v 0.009532 0.112761 0.002968
v 0.009532 0.112761 -0.002968
v 0.015468 0.114408 -0.002968
v 0.015468 0.107820 0.002968
v 0.009532 0.109467 0.002968
v 0.009532 0.109467 -0.002968
v 0.015468 0.107820 -0.002968
v 0.015468 0.101232 0.002968
v 0.009532 0.099585 0.002968
v 0.009532 0.099585 -0.002968
v 0.015468 0.101232 -0.002968
v 0.015468 0.094645 0.002968
v 0.009532 0.096292 0.002968
v 0.009532 0.096292 -0.002968
v 0.015468 0.094645 -0.002968
v 0.015468 0.088057 0.002968
v 0.009532 0.086410 0.002968
v 0.009532 0.086410 -0.002968
v 0.015468 0.088057 -0.002968
v 0.015468 0.081469 0.002968
v 0.009532 0.083116 0.002968
v 0.009532 0.083116 -0.002968
v 0.015468 0.081469 -0.002968
v 0.015468 0.074882 0.002968
v 0.009532 0.073235 0.002968
v 0.009532 0.073235 -0.002968
v 0.015468 0.074882 -0.002968
v 0.015468 0.068294 0.002968
v 0.009532 0.069941 0.002968
v 0.009532 0.069941 -0.002968
v 0.015468 0.068294 -0.002968
v 0.015468 0.061706 0.002968
v 0.009532 0.060059 0.002968
v 0.009532 0.060059 -0.002968
v 0.015468 0.061706 -0.002968
v 0.015468 0.055118 0.002968
v 0.009532 0.056765 0.002968
v 0.009532 0.056765 -0.002968
v 0.015468 0.055118 -0.002968
v 0.015468 0.048531 0.002968
v 0.009532 0.046884 0.002968
v 0.009532 0.046884 -0.002968
v 0.015468 0.048531 -0.002968
v 0.015468 0.041943 0.002968
v 0.009532 0.043590 0.002968
v 0.009532 0.043590 -0.002968
v 0.015468 0.041943 -0.002968
v 0.015468 0.035355 0.002968
v 0.009532 0.033709 0.002968
v 0.009532 0.033709 -0.002968
v 0.015468 0.035355 -0.002968
v 0.015468 0.028768 0.002968
v 0.009532 0.030415 0.002968
v 0.009532 0.030415 -0.002968
v 0.015468 0.028768 -0.002968
v 0.015468 0.022180 0.002968
v 0.009532 0.020533 0.002968
v 0.009532 0.020533 -0.002968
v 0.015468 0.022180 -0.002968
v 0.015468 0.015592 0.002968
v 0.009532 0.017239 0.002968
v 0.009532 0.017239 -0.002968
v 0.015468 0.015592 -0.002968
v 0.015468 0.009005 0.002968
v 0.009532 0.007358 0.002968
v 0.009532 0.007358 -0.002968
v 0.015468 0.009005 -0.002968
v 0.015468 0.002417 0.002968
v 0.009532 0.004064 0.002968
v 0.009532 0.004064 -0.002968
v 0.015468 0.002417 -0.002968
vt 0.375000 0.000000
vt 0.625000 0.000000
vt 0.625000 0.011905
vt 0.375000 0.011905
vt 0.375000 0.250000
vt 0.625000 0.250000
vt 0.625000 0.500000
vt 0.375000 0.500000
vt 0.375000 0.738095
vt 0.625000 0.738095
vt 0.625000 0.750000
vt 0.375000 0.750000
vt 0.625000 1.000000
vt 0.375000 1.000000
vt 0.875000 0.000000
vt 0.875000 0.011905
vt 0.125000 0.000000
vt 0.125000 0.011905
vt 0.375000 0.238095
vt 0.625000 0.238095
vt 0.125000 0.238095
vt 0.125000 0.250000
vt 0.625000 0.511905
vt 0.375000 0.511905
vt 0.875000 0.238095
vt 0.875000 0.250000
vt 0.375000 0.226190
vt 0.625000 0.226190
vt 0.125000 0.226190
vt 0.625000 0.523810
vt 0.375000 0.523810
vt 0.375000 0.214286
vt 0.625000 0.214286
vt 0.125000 0.214286
vt 0.625000 0.535714
vt 0.375000 0.535714
vt 0.875000 0.214286
vt 0.875000 0.226190
vt 0.375000 0.202381
vt 0.625000 0.202381
vt 0.125000 0.202381
vt 0.625000 0.547619
vt 0.375000 0.547619
vt 0.375000 0.190476
vt 0.625000 0.190476
vt 0.125000 0.190476
vt 0.625000 0.559524
vt 0.375000 0.559524
vt 0.875000 0.190476
vt 0.875000 0.202381
vt 0.375000 0.178571
vt 0.625000 0.178571
vt 0.125000 0.178571
vt 0.625000 0.571429
vt 0.375000 0.571429
vt 0.375000 0.166667
vt 0.625000 0.166667
vt 0.125000 0.166667
vt 0.625000 0.583333
vt 0.375000 0.583333
vt 0.875000 0.166667
vt 0.875000 0.178571
vt 0.375000 0.154762
vt 0.625000 0.154762
vt 0.125000 0.154762
vt 0.625000 0.595238
vt 0.375000 0.595238
vt 0.375000 0.142857
vt 0.625000 0.142857
vt 0.125000 0.142857
vt 0.625000 0.607143
vt 0.375000 0.607143
vt 0.875000 0.142857
vt 0.875000 0.154762
vt 0.375000 0.130952
vt 0.625000 0.130952
vt 0.125000 0.130952
vt 0.625000 0.619048
vt 0.375000 0.619048
vt 0.375000 0.119048
vt 0.625000 0.119048
vt 0.125000 0.119048
vt 0.625000 0.630952
vt 0.375000 0.630952
vt 0.875000 0.119048
vt 0.875000 0.130952
vt 0.375000 0.107143
vt 0.625000 0.107143
vt 0.125000 0.107143
vt 0.625000 0.642857
vt 0.375000 0.642857
vt 0.375000 0.095238
vt 0.625000 0.095238
vt 0.125000 0.095238
vt 0.625000 0.654762
vt 0.375000 0.654762
vt 0.875000 0.095238
vt 0.875000 0.107143
vt 0.375000 0.083333
vt 0.625000 0.083333
vt 0.125000 0.083333
vt 0.625000 0.666667
vt 0.375000 0.666667
vt 0.375000 0.071429
vt 0.625000 0.071429
vt 0.125000 0.071429
vt 0.625000 0.678571
vt 0.375000 0.678571
vt 0.875000 0.071429
vt 0.875000 0.083333
vt 0.375000 0.059524
vt 0.625000 0.059524
vt 0.125000 0.059524
vt 0.625000 0.690476
vt 0.375000 0.690476
vt 0.375000 0.047619
vt 0.625000 0.047619
vt 0.125000 0.047619
vt 0.625000 0.702381
vt 0.375000 0.702381
vt 0.875000 0.047619
vt 0.875000 0.059524
vt 0.375000 0.035714
vt 0.625000 0.035714
vt 0.125000 0.035714
vt 0.625000 0.714286
vt 0.375000 0.714286
vt 0.375000 0.023810
vt 0.625000 0.023810
vt 0.125000 0.023810
vt 0.625000 0.726190
vt 0.375000 0.726190
vt 0.875000 0.023810
vt 0.875000 0.035714
vt 0.375000 0.000000
vt 0.625000 0.000000
vt 0.625000 0.011905
vt 0.375000 0.011905
vt 0.375000 0.250000
vt 0.625000 0.250000
vt 0.625000 0.500000
vt 0.375000 0.500000
vt 0.375000 0.738095
vt 0.625000 0.738095
vt 0.625000 0.750000
vt 0.375000 0.750000
vt 0.625000 1.000000
vt 0.375000 1.000000
vt 0.875000 0.000000
vt 0.875000 0.011905
vt 0.125000 0.000000
vt 0.125000 0.011905
vt 0.375000 0.238095
vt 0.625000 0.238095
vt 0.125000 0.238095
vt 0.125000 0.250000
vt 0.625000 0.511905
vt 0.375000 0.511905
vt 0.875000 0.238095
vt 0.875000 0.250000
vt 0.375000 0.226190
vt 0.625000 0.226190
vt 0.625000 0.523810
vt 0.375000 0.523810
vt 0.875000 0.226190
vt 0.375000 0.214286
vt 0.625000 0.214286
vt 0.125000 0.214286
vt 0.125000 0.226190
vt 0.625000 0.535714
vt 0.375000 0.535714
vt 0.875000 0.214286
vt 0.375000 0.202381
vt 0.625000 0.202381
vt 0.625000 0.547619
vt 0.375000 0.547619
vt 0.875000 0.202381
vt 0.375000 0.190476
vt 0.625000 0.190476
vt 0.125000 0.190476
vt 0.125000 0.202381
vt 0.625000 0.559524
vt 0.375000 0.559524
vt 0.875000 0.190476
vt 0.375000 0.178571
vt 0.625000 0.178571
vt 0.625000 0.571429
vt 0.375000 0.571429
vt 0.875000 0.178571
vt 0.375000 0.166667
vt 0.625000 0.166667
vt 0.125000 0.166667
vt 0.125000 0.178571
vt 0.625000 0.583333
vt 0.375000 0.583333
vt 0.875000 0.166667
vt 0.375000 0.154762
vt 0.625000 0.154762
vt 0.625000 0.595238
vt 0.375000 0.595238
vt 0.875000 0.154762
vt 0.375000 0.142857
vt 0.625000 0.142857
vt 0.125000 0.142857
vt 0.125000 0.154762
vt 0.625000 0.607143
vt 0.375000 0.607143
vt 0.875000 0.142857
vt 0.375000 0.130952
vt 0.625000 0.130952
vt 0.625000 0.619048
vt 0.375000 0.619048
vt 0.875000 0.130952
vt 0.375000 0.119048
vt 0.625000 0.119048
vt 0.125000 0.119048
vt 0.125000 0.130952
vt 0.625000 0.630952
vt 0.375000 0.630952
vt 0.875000 0.119048
vt 0.375000 0.107143
vt 0.625000 0.107143
vt 0.625000 0.642857
vt 0.375000 0.642857
vt 0.875000 0.107143
vt 0.375000 0.095238
vt 0.625000 0.095238
vt 0.125000 0.095238
vt 0.125000 0.107143
vt 0.625000 0.654762
vt 0.375000 0.654762
vt 0.875000 0.095238
vt 0.375000 0.083333
vt 0.625000 0.083333
vt 0.625000 0.666667
vt 0.375000 0.666667
vt 0.875000 0.083333
vt 0.375000 0.071429
vt 0.625000 0.071429
vt 0.125000 0.071429
vt 0.125000 0.083333
vt 0.625000 0.678571
vt 0.375000 0.678571
vt 0.875000 0.071429
vt 0.375000 0.059524
vt 0.625000 0.059524
vt 0.625000 0.690476
vt 0.375000 0.690476
vt 0.875000 0.059524
vt 0.375000 0.047619
vt 0.625000 0.047619
vt 0.125000 0.047619
vt 0.125000 0.059524
vt 0.625000 0.702381
vt 0.375000 0.702381
vt 0.875000 0.047619
vt 0.375000 0.035714
vt 0.625000 0.035714
vt 0.625000 0.714286
vt 0.375000 0.714286
vt 0.875000 0.035714
vt 0.375000 0.023810
vt 0.625000 0.023810
vt 0.125000 0.023810
vt 0.125000 0.035714
vt 0.625000 0.726190
vt 0.375000 0.726190
vt 0.875000 0.023810
vn 0.0000 -0.0000 1.0000
vn 0.0000 1.0000 0.0000
vn -0.0000 0.0000 -1.0000
vn 0.0000 -1.0000 -0.0000
vn 1.0000 0.0000 0.0000
vn -1.0000 0.0000 0.0000
usemtl lambert2
s 1
f 1/1/1 2/2/1 85/3/1 86/4/1
f 3/5/2 4/6/2 6/7/2 5/8/2
f 87/9/3 88/10/3 8/11/3 7/12/3
f 7/12/4 8/11/4 2/13/4 1/14/4
f 2/2/5 8/15/5 88/16/5 85/3/5
f 7/17/6 1/1/6 86/4/6 87/18/6
f 10/19/1 9/20/1 4/6/1 3/5/1
f 11/21/6 10/19/6 3/5/6 5/22/6
f 5/8/3 6/7/3 12/23/3 11/24/3
f 9/20/5 12/25/5 6/26/5 4/6/5
f 14/27/1 13/28/1 9/20/1 10/19/1
f 15/29/6 14/27/6 10/19/6 11/21/6
f 11/24/3 12/23/3 16/30/3 15/31/3
f 18/32/1 17/33/1 13/28/1 14/27/1
f 19/34/6 18/32/6 14/27/6 15/29/6
f 15/31/3 16/30/3 20/35/3 19/36/3
f 17/33/5 20/37/5 16/38/5 13/28/5
f 22/39/1 21/40/1 17/33/1 18/32/1
f 23/41/6 22/39/6 18/32/6 19/34/6
f 19/36/3 20/35/3 24/42/3 23/43/3
f 26/44/1 25/45/1 21/40/1 22/39/1
f 27/46/6 26/44/6 22/39/6 23/41/6
f 23/43/3 24/42/3 28/47/3 27/48/3
f 25/45/5 28/49/5 24/50/5 21/40/5
f 30/51/1 29/52/1 25/45/1 26/44/1
f 31/53/6 30/51/6 26/44/6 27/46/6
f 27/48/3 28/47/3 32/54/3 31/55/3
f 34/56/1 33/57/1 29/52/1 30/51/1
f 35/58/6 34/56/6 30/51/6 31/53/6
f 31/55/3 32/54/3 36/59/3 35/60/3
f 33/57/5 36/61/5 32/62/5 29/52/5
f 38/63/1 37/64/1 33/57/1 34/56/1
f 39/65/6 38/63/6 34/56/6 35/58/6
f 35/60/3 36/59/3 40/66/3 39/67/3
f 42/68/1 41/69/1 37/64/1 38/63/1
f 43/70/6 42/68/6 38/63/6 39/65/6
f 39/67/3 40/66/3 44/71/3 43/72/3
f 41/69/5 44/73/5 40/74/5 37/64/5
f 46/75/1 45/76/1 41/69/1 42/68/1
f 47/77/6 46/75/6 42/68/6 43/70/6
f 43/72/3 44/71/3 48/78/3 47/79/3
f 50/80/1 49/81/1 45/76/1 46/75/1
f 51/82/6 50/80/6 46/75/6 47/77/6
f 47/79/3 48/78/3 52/83/3 51/84/3
f 49/81/5 52/85/5 48/86/5 45/76/5
f 54/87/1 53/88/1 49/81/1 50/80/1
f 55/89/6 54/87/6 50/80/6 51/82/6
f 51/84/3 52/83/3 56/90/3 55/91/3
f 58/92/1 57/93/1 53/88/1 54/87/1
f 59/94/6 58/92/6 54/87/6 55/89/6
f 55/91/3 56/90/3 60/95/3 59/96/3
f 57/93/5 60/97/5 56/98/5 53/88/5
f 62/99/1 61/100/1 57/93/1 58/92/1
f 63/101/6 62/99/6 58/92/6 59/94/6
f 59/96/3 60/95/3 64/102/3 63/103/3
f 66/104/1 65/105/1 61/100/1 62/99/1
f 67/106/6 66/104/6 62/99/6 63/101/6
f 63/103/3 64/102/3 68/107/3 67/108/3
f 65/105/5 68/109/5 64/110/5 61/100/5
f 70/111/1 69/112/1 65/105/1 66/104/1
f 71/113/6 70/111/6 66/104/6 67/106/6
f 67/108/3 68/107/3 72/114/3 71/115/3
f 74/116/1 73/117/1 69/112/1 70/111/1
f 75/118/6 74/116/6 70/111/6 71/113/6
f 71/115/3 72/114/3 76/119/3 75/120/3
f 73/117/5 76/121/5 72/122/5 69/112/5
f 78/123/1 77/124/1 73/117/1 74/116/1
f 79/125/6 78/123/6 74/116/6 75/118/6
f 75/120/3 76/119/3 80/126/3 79/127/3
f 82/128/1 81/129/1 77/124/1 78/123/1
f 83/130/6 82/128/6 78/123/6 79/125/6
f 79/127/3 80/126/3 84/131/3 83/132/3
f 81/129/5 84/133/5 80/134/5 77/124/5
f 86/4/1 85/3/1 81/129/1 82/128/1
f 87/18/6 86/4/6 82/128/6 83/130/6
f 83/132/3 84/131/3 88/10/3 87/9/3
f 89/135/1 90/136/1 173/137/1 174/138/1
f 91/139/2 92/140/2 94/141/2 93/142/2
f 175/143/3 176/144/3 96/145/3 95/146/3
f 95/146/4 96/145/4 90/147/4 89/148/4
f 90/136/5 96/149/5 176/150/5 173/137/5
f 95/151/6 89/135/6 174/138/6 175/152/6
f 98/153/1 97/154/1 92/140/1 91/139/1
f 99/155/6 98/153/6 91/139/6 93/156/6
f 93/142/3 94/141/3 100/157/3 99/158/3
f 97/154/5 100/159/5 94/160/5 92/140/5
f 102/161/1 101/162/1 97/154/1 98/153/1
f 99/158/3 100/157/3 104/163/3 103/164/3
f 101/162/5 104/165/5 100/159/5 97/154/5
f 106/166/1 105/167/1 101/162/1 102/161/1
f 107/168/6 106/166/6 102/161/6 103/169/6
f 103/164/3 104/163/3 108/170/3 107/171/3
f 105/167/5 108/172/5 104/165/5 101/162/5
f 110/173/1 109/174/1 105/167/1 106/166/1
f 107/171/3 108/170/3 112/175/3 111/176/3
f 109/174/5 112/177/5 108/172/5 105/167/5
f 114/178/1 113/179/1 109/174/1 110/173/1
f 115/180/6 114/178/6 110/173/6 111/181/6
f 111/176/3 112/175/3 116/182/3 115/183/3
f 113/179/5 116/184/5 112/177/5 109/174/5
f 118/185/1 117/186/1 113/179/1 114/178/1
f 115/183/3 116/182/3 120/187/3 119/188/3
f 117/186/5 120/189/5 116/184/5 113/179/5
f 122/190/1 121/191/1 117/186/1 118/185/1
f 123/192/6 122/190/6 118/185/6 119/193/6
f 119/188/3 120/187/3 124/194/3 123/195/3
f 121/191/5 124/196/5 120/189/5 117/186/5
f 126/197/1 125/198/1 121/191/1 122/190/1
f 123/195/3 124/194/3 128/199/3 127/200/3
f 125/198/5 128/201/5 124/196/5 121/191/5
f 130/202/1 129/203/1 125/198/1 126/197/1
f 131/204/6 130/202/6 126/197/6 127/205/6
f 127/200/3 128/199/3 132/206/3 131/207/3
f 129/203/5 132/208/5 128/201/5 125/198/5
f 134/209/1 133/210/1 129/203/1 130/202/1
f 131/207/3 132/206/3 136/211/3 135/212/3
f 133/210/5 136/213/5 132/208/5 129/203/5
f 138/214/1 137/215/1 133/210/1 134/209/1
f 139/216/6 138/214/6 134/209/6 135/217/6
f 135/212/3 136/211/3 140/218/3 139/219/3
f 137/215/5 140/220/5 136/213/5 133/210/5
f 142/221/1 141/222/1 137/215/1 138/214/1
f 139/219/3 140/218/3 144/223/3 143/224/3
f 141/222/5 144/225/5 140/220/5 137/215/5
f 146/226/1 145/227/1 141/222/1 142/221/1
f 147/228/6 146/226/6 142/221/6 143/229/6
f 143/224/3 144/223/3 148/230/3 147/231/3
f 145/227/5 148/232/5 144/225/5 141/222/5
f 150/233/1 149/234/1 145/227/1 146/226/1
f 147/231/3 148/230/3 152/235/3 151/236/3
f 149/234/5 152/237/5 148/232/5 145/227/5
f 154/238/1 153/239/1 149/234/1 150/233/1
f 155/240/6 154/238/6 150/233/6 151/241/6
f 151/236/3 152/235/3 156/242/3 155/243/3
f 153/239/5 156/244/5 152/237/5 149/234/5
f 158/245/1 157/246/1 153/239/1 154/238/1
f 155/243/3 156/242/3 160/247/3 159/248/3
f 157/246/5 160/249/5 156/244/5 153/239/5
f 162/250/1 161/251/1 157/246/1 158/245/1
f 163/252/6 162/250/6 158/245/6 159/253/6
f 159/248/3 160/247/3 164/254/3 163/255/3
f 161/251/5 164/256/5 160/249/5 157/246/5
f 166/257/1 165/258/1 161/251/1 162/250/1
f 163/255/3 164/254/3 168/259/3 167/260/3
f 165/258/5 168/261/5 164/256/5 161/251/5
f 170/262/1 169/263/1 165/258/1 166/257/1
f 171/264/6 170/262/6 166/257/6 167/265/6
f 167/260/3 168/259/3 172/266/3 171/267/3
f 169/263/5 172/268/5 168/261/5 165/258/5
f 174/138/1 173/137/1 169/263/1 170/262/1
f 171/267/3 172/266/3 176/144/3 175/143/3
f 173/137/5 176/150/5 172/268/5 169/263/5
f 80/126/3 76/119/3 163/255/3 167/260/3
f 76/121/2 73/117/2 162/250/2 163/252/2
f 73/117/1 77/124/1 166/257/1 162/250/1
f 77/124/4 80/134/4 167/265/4 166/257/4
f 64/102/3 60/95/3 147/231/3 151/236/3
f 60/97/2 57/93/2 146/226/2 147/228/2
f 57/93/1 61/100/1 150/233/1 146/226/1
f 61/100/4 64/110/4 151/241/4 150/233/4
f 48/78/3 44/71/3 131/207/3 135/212/3
f 44/73/2 41/69/2 130/202/2 131/204/2
f 41/69/1 45/76/1 134/209/1 130/202/1
f 45/76/4 48/86/4 135/217/4 134/209/4
f 32/54/3 28/47/3 115/183/3 119/188/3
f 28/49/2 25/45/2 114/178/2 115/180/2
f 25/45/1 29/52/1 118/185/1 114/178/1
f 29/52/4 32/62/4 119/193/4 118/185/4
f 16/30/3 12/23/3 99/158/3 103/164/3
f 12/25/2 9/20/2 98/153/2 99/155/2
f 9/20/1 13/28/1 102/161/1 98/153/1
f 13/28/4 16/38/4 103/169/4 102/161/4
f 72/114/3 68/107/3 155/243/3 159/248/3
f 68/109/2 65/105/2 154/238/2 155/240/2
f 65/105/1 69/112/1 158/245/1 154/238/1
f 69/112/4 72/122/4 159/253/4 158/245/4
f 56/90/3 52/83/3 139/219/3 143/224/3
f 52/85/2 49/81/2 138/214/2 139/216/2
f 49/81/1 53/88/1 142/221/1 138/214/1
f 53/88/4 56/98/4 143/229/4 142/221/4
f 40/66/3 36/59/3 123/195/3 127/200/3
f 36/61/2 33/57/2 122/190/2 123/192/2
f 33/57/1 37/64/1 126/197/1 122/190/1
f 37/64/4 40/74/4 127/205/4 126/197/4
f 24/42/3 20/35/3 107/171/3 111/176/3
f 20/37/2 17/33/2 106/166/2 107/168/2
f 17/33/1 21/40/1 110/173/1 106/166/1
f 21/40/4 24/50/4 111/181/4 110/173/4
f 88/10/3 84/131/3 171/267/3 175/143/3
f 84/133/2 81/129/2 170/262/2 171/264/2
f 81/129/1 85/3/1 174/138/1 170/262/1
f 85/3/4 88/16/4 175/152/4 174/138/4
